<?xml version="1.0"?><svg xmlns="http://www.w3.org/2000/svg"  viewBox="0 0 30 30" width="30px" height="30px">    <path d="M24.707,8.793l-6.5-6.5C18.019,2.105,17.765,2,17.5,2H7C5.895,2,5,2.895,5,4v22c0,1.105,0.895,2,2,2h16c1.105,0,2-0.895,2-2 V9.5C25,9.235,24.895,8.981,24.707,8.793z M18,21h-8c-0.552,0-1-0.448-1-1c0-0.552,0.448-1,1-1h8c0.552,0,1,0.448,1,1 C19,20.552,18.552,21,18,21z M20,17H10c-0.552,0-1-0.448-1-1c0-0.552,0.448-1,1-1h10c0.552,0,1,0.448,1,1C21,16.552,20.552,17,20,17 z M18,10c-0.552,0-1-0.448-1-1V3.904L23.096,10H18z"/></svg>