<svg xmlns="http://www.w3.org/2000/svg"  viewBox="0 0 48 48" width="48px" height="48px" baseProfile="basic"><linearGradient id="pdWyOkYdqncui2jEJReH0a" x1="37.127" x2="25.868" y1="6.873" y2="18.132" gradientUnits="userSpaceOnUse"><stop offset="0" stop-color="#262626" stop-opacity="0"/><stop offset=".913" stop-color="#262626" stop-opacity=".8"/></linearGradient><path fill="url(#pdWyOkYdqncui2jEJReH0a)" d="M28,4v8c0,2.209,1.791,4,4,4h8L28,4z"/><linearGradient id="pdWyOkYdqncui2jEJReH0b" x1="-8.398" x2="74.731" y1="51.185" y2="-18.568" gradientUnits="userSpaceOnUse"><stop offset="0" stop-color="#262626" stop-opacity="0"/><stop offset="1" stop-color="#262626" stop-opacity=".8"/></linearGradient><path fill="url(#pdWyOkYdqncui2jEJReH0b)" d="M40,16v23c0,2.761-2.239,5-5,5H8V9c0-2.761,2.239-5,5-5h15L40,16z"/><linearGradient id="pdWyOkYdqncui2jEJReH0c" x1="12" x2="31.567" y1="60.97" y2="7.208" gradientUnits="userSpaceOnUse"><stop offset="0" stop-color="#262626" stop-opacity="0"/><stop offset="1" stop-color="#262626" stop-opacity=".8"/></linearGradient><path fill="url(#pdWyOkYdqncui2jEJReH0c)" d="M33,26H18c-1.657,0-3,1.343-3,3v1h15c1.657,0,3-1.343,3-3V26z M24,18h-6c-1.657,0-3,1.343-3,3	v1h6c1.657,0,3-1.343,3-3V18z M33,34H18c-1.657,0-3,1.343-3,3v1h15c1.657,0,3-1.343,3-3V34z"/></svg>